<mxfile host="app.diagrams.net" modified="2024-04-22T13:04:34.836Z" agent="Mozilla/5.0 (Windows NT 10.0; Win64; x64) AppleWebKit/537.36 (KHTML, like Gecko) Chrome/123.0.0.0 Safari/537.36" etag="XyuS1cYHS-VHlW2JM703" version="24.2.2" type="github">
  <diagram name="第 1 页" id="g1sN9jPEAtrTvIhcXv-d">
    <mxGraphModel dx="1647" dy="838" grid="1" gridSize="10" guides="1" tooltips="1" connect="1" arrows="1" fold="1" page="1" pageScale="1" pageWidth="827" pageHeight="1169" math="0" shadow="0">
      <root>
        <mxCell id="0" />
        <mxCell id="1" parent="0" />
        <mxCell id="8aUICM4-uKmYA9IZO1OV-1" value="" style="edgeStyle=orthogonalEdgeStyle;rounded=0;orthogonalLoop=1;jettySize=auto;html=1;fontSize=18;" parent="1" source="8aUICM4-uKmYA9IZO1OV-2" target="8aUICM4-uKmYA9IZO1OV-4" edge="1">
          <mxGeometry relative="1" as="geometry" />
        </mxCell>
        <mxCell id="8aUICM4-uKmYA9IZO1OV-2" value="获取用户编号" style="rounded=0;whiteSpace=wrap;html=1;fontSize=18;" parent="1" vertex="1">
          <mxGeometry x="40" y="340" width="210" height="60" as="geometry" />
        </mxCell>
        <mxCell id="8aUICM4-uKmYA9IZO1OV-3" value="" style="edgeStyle=orthogonalEdgeStyle;rounded=0;orthogonalLoop=1;jettySize=auto;html=1;fontSize=18;" parent="1" source="8aUICM4-uKmYA9IZO1OV-4" target="8aUICM4-uKmYA9IZO1OV-6" edge="1">
          <mxGeometry relative="1" as="geometry" />
        </mxCell>
        <mxCell id="8aUICM4-uKmYA9IZO1OV-4" value="获取用户10天内的&lt;span style=&quot;background-color: initial;&quot;&gt;行为数据&lt;/span&gt;" style="rounded=0;whiteSpace=wrap;html=1;fontSize=18;" parent="1" vertex="1">
          <mxGeometry x="40" y="470" width="210" height="60" as="geometry" />
        </mxCell>
        <mxCell id="8aUICM4-uKmYA9IZO1OV-5" value="" style="edgeStyle=orthogonalEdgeStyle;rounded=0;orthogonalLoop=1;jettySize=auto;html=1;fontSize=18;" parent="1" source="8aUICM4-uKmYA9IZO1OV-6" target="8aUICM4-uKmYA9IZO1OV-7" edge="1">
          <mxGeometry relative="1" as="geometry" />
        </mxCell>
        <mxCell id="8aUICM4-uKmYA9IZO1OV-6" value="行为类型获取" style="rounded=0;whiteSpace=wrap;html=1;fontSize=18;" parent="1" vertex="1">
          <mxGeometry x="40" y="590" width="210" height="60" as="geometry" />
        </mxCell>
        <mxCell id="8aUICM4-uKmYA9IZO1OV-9" value="" style="edgeStyle=orthogonalEdgeStyle;rounded=0;orthogonalLoop=1;jettySize=auto;html=1;fontSize=18;" parent="1" source="8aUICM4-uKmYA9IZO1OV-7" target="8aUICM4-uKmYA9IZO1OV-8" edge="1">
          <mxGeometry relative="1" as="geometry" />
        </mxCell>
        <mxCell id="8aUICM4-uKmYA9IZO1OV-7" value="行为内容文本映射" style="rounded=0;whiteSpace=wrap;html=1;fontSize=18;" parent="1" vertex="1">
          <mxGeometry x="40" y="710" width="210" height="60" as="geometry" />
        </mxCell>
        <mxCell id="8aUICM4-uKmYA9IZO1OV-8" value="得到模型训练&lt;span style=&quot;background-color: initial;&quot;&gt;样本&lt;/span&gt;" style="rounded=0;whiteSpace=wrap;html=1;fontSize=18;" parent="1" vertex="1">
          <mxGeometry x="40" y="830" width="210" height="60" as="geometry" />
        </mxCell>
      </root>
    </mxGraphModel>
  </diagram>
</mxfile>
